<?xml version="1.0" standalone="no"?>
<!DOCTYPE svg PUBLIC "-//W3C//DTD SVG 20010904//EN"
 "http://www.w3.org/TR/2001/REC-SVG-20010904/DTD/svg10.dtd">
<svg version="1.0" xmlns="http://www.w3.org/2000/svg"
 width="115.000000pt" height="115.000000pt" viewBox="0 0 115.000000 115.000000"
 preserveAspectRatio="xMidYMid meet">
<metadata>
Created by potrace 1.14, written by Peter Selinger 2001-2017
</metadata>
<g transform="translate(0.000000,115.000000) scale(0.100000,-0.100000)"
fill="#000000" stroke="none">
<path d="M83 665 c0 -27 2 -38 4 -22 2 15 2 37 0 50 -2 12 -4 0 -4 -28z"/>
<path d="M190 703 c8 -3 19 -11 23 -17 6 -7 7 -6 4 4 -2 8 -12 16 -23 17 -13
2 -15 1 -4 -4z"/>
<path d="M237 702 c6 -4 13 -25 16 -47 l4 -40 1 42 c1 23 8 44 15 46 6 3 -1 6
-18 6 -17 0 -25 -3 -18 -7z"/>
<path d="M291 663 c1 -27 4 -39 6 -29 3 11 13 27 22 35 9 9 12 13 7 9 -15 -12
-26 -9 -26 6 0 8 8 17 18 19 13 4 11 5 -5 6 -21 1 -23 -3 -22 -46z"/>
<path d="M346 697 c3 -10 9 -15 12 -12 3 3 0 11 -7 18 -10 9 -11 8 -5 -6z"/>
<path d="M411 700 c0 -8 4 -22 9 -30 12 -18 12 -2 0 25 -6 13 -9 15 -9 5z"/>
<path d="M456 693 c-4 -9 -3 -20 2 -25 4 -4 9 4 10 17 2 29 -3 32 -12 8z"/>
<path d="M490 665 c0 -40 2 -45 23 -44 16 1 18 2 5 6 -21 5 -24 29 -5 36 10 4
10 6 0 6 -19 1 -15 29 5 34 13 4 11 5 -5 6 -21 1 -23 -4 -23 -44z"/>
<path d="M543 665 c0 -27 2 -38 4 -22 2 15 2 37 0 50 -2 12 -4 0 -4 -28z"/>
<path d="M583 670 c0 -25 2 -35 4 -22 2 12 2 32 0 45 -2 12 -4 2 -4 -23z"/>
<path d="M607 702 c6 -4 13 -25 16 -47 l4 -40 1 42 c1 23 8 44 15 46 6 3 -1 6
-18 6 -17 0 -25 -3 -18 -7z"/>
<path d="M698 703 c-2 -5 -1 -24 3 -43 l6 -35 2 43 c1 39 -3 52 -11 35z"/>
<path d="M756 679 c-3 -17 -6 -38 -6 -45 0 -19 28 -6 35 17 3 10 8 28 11 39 4
15 1 20 -14 20 -14 0 -21 -9 -26 -31z"/>
<path d="M802 670 c-16 -66 15 -63 35 3 10 33 9 37 -7 37 -12 0 -21 -12 -28
-40z"/>
<path d="M851 679 c-15 -43 -14 -56 4 -56 13 0 35 51 35 80 0 21 -30 3 -39
-24z"/>
<path d="M906 702 c-2 -4 -7 -23 -11 -43 -5 -28 -3 -36 9 -36 8 0 17 12 21 26
3 14 8 34 11 44 5 17 -20 25 -30 9z"/>
<path d="M947 683 c-3 -16 -9 -36 -13 -47 -5 -14 -3 -17 12 -14 12 2 23 18 30
46 12 38 11 42 -5 42 -12 0 -20 -10 -24 -27z"/>
<path d="M991 673 c-6 -20 -9 -38 -8 -40 2 -1 20 -4 40 -7 29 -4 40 0 51 16
23 32 2 68 -40 68 -30 0 -34 -4 -43 -37z"/>
<path d="M661 660 c0 -32 2 -40 9 -29 5 9 6 28 0 45 -8 27 -8 26 -9 -16z"/>
<path d="M172 665 c0 -16 2 -22 5 -12 2 9 2 23 0 30 -3 6 -5 -1 -5 -18z"/>
<path d="M365 666 c-3 -9 -7 -23 -10 -31 -2 -8 -2 -15 1 -15 7 0 25 52 20 58
-3 3 -8 -3 -11 -12z"/>
<path d="M210 642 c0 -6 -8 -13 -17 -15 -16 -4 -16 -5 -1 -6 18 -1 34 16 24
26 -3 4 -6 1 -6 -5z"/>
<path d="M435 640 c-3 -5 -1 -10 4 -10 6 0 11 5 11 10 0 6 -2 10 -4 10 -3 0
-8 -4 -11 -10z"/>
<path d="M104 582 c-18 -11 -34 -49 -34 -77 0 -35 42 -75 78 -75 29 0 82 33
82 51 0 13 -37 11 -59 -3 -39 -24 -69 33 -35 67 15 14 18 14 33 0 20 -17 61
-21 61 -5 0 6 -9 19 -20 30 -20 20 -83 28 -106 12z"/>
<path d="M240 571 c0 -13 8 -21 23 -23 19 -3 22 -10 25 -60 3 -54 5 -58 27
-58 24 0 25 3 25 60 0 53 2 60 20 60 13 0 20 7 20 20 0 18 -7 20 -70 20 -62 0
-70 -2 -70 -19z"/>
<path d="M421 523 c-12 -37 -25 -74 -28 -80 -6 -16 43 -18 52 -3 3 6 17 10 30
10 13 0 27 -4 30 -10 9 -15 45 -12 45 4 0 7 -11 42 -24 77 -21 57 -27 64 -53
67 -27 3 -30 0 -52 -65z m55 -35 c-15 -10 -19 -3 -10 24 7 22 7 22 14 3 4 -11
3 -23 -4 -27z"/>
<path d="M570 510 c0 -79 0 -80 25 -80 20 0 25 5 25 25 0 19 5 25 23 25 33 0
67 28 67 55 0 34 -36 55 -92 55 l-48 0 0 -80z m90 25 c0 -8 -9 -15 -20 -15
-11 0 -20 7 -20 15 0 8 9 15 20 15 11 0 20 -7 20 -15z"/>
<path d="M720 570 c0 -15 7 -20 25 -20 24 0 25 -3 25 -60 0 -57 1 -60 25 -60
24 0 25 3 25 60 0 57 1 60 25 60 18 0 25 5 25 20 0 18 -7 20 -75 20 -68 0 -75
-2 -75 -20z"/>
</g>
</svg>
